# AST/ASF file generated using VICON BodyLanguage
# -----------------------------------------------
:version 1.10
:name VICON
:units
  mass 1.0
  length 0.45
  angle deg
:documentation
   .ast/.asf automatically generated from VICON data using
   VICON BodyBuilder and BodyLanguage model FoxedUp or BRILLIANT.MOD
:root
   order TX TY TZ RX RY RZ
   axis XYZ
   position 0 0 0  
   orientation 0 0 0 
:bonedata
  begin
     id 1 
     name lhipjoint
     direction 0.588788 -0.725889 0.355548 
     length 2.37778 
     axis 0 0 0  XYZ
  end
  begin
     id 2 
     name lfemur
     direction 0.34202 -0.939693 0  
     length 6.86393  
     axis 0 0 20  XYZ
    dof rx ry rz
    limits (-160.0 20.0)
           (-70.0 70.0)
           (-60.0 70.0)
  end
  begin
     id 3 
     name ltibia
     direction 0.34202 -0.939693 0   
     length 7.32851   
     axis 0 0 20   XYZ
    dof rx
    limits (-10.0 170.0)
  end
  begin
     id 4 
     name lfoot
     direction 0.0626533 -0.172138 0.983078   
     length 1.98929   
     axis -90 7.62852e-016 20   XYZ
    dof rx rz
    limits (-45.0 90.0)
           (-70.0 20.0)
  end
  begin
     id 5 
     name ltoes
     direction 1.53647e-011 -4.21734e-011 1   
     length 1.00479   
     axis -90 7.62852e-016 20   XYZ
    dof rx
    limits (-90.0 20.0)
  end
  begin
     id 6 
     name rhipjoint
     direction -0.59141 -0.724168 0.354705   
     length 2.38343  
     axis 0 0 0  XYZ 
  end
  begin
     id 7 
     name rfemur
     direction -0.34202 -0.939693 0   
     length 6.95589   
     axis 0 0 -20   XYZ
    dof rx ry rz
    limits (-160.0 20.0)
           (-70.0 70.0)
           (-70.0 60.0)
  end
  begin
     id 8 
     name rtibia
     direction -0.34202 -0.939693 0   
     length 7.32327   
     axis 0 0 -20   XYZ
    dof rx
    limits (-10.0 170.0)
 end
 begin
     id 9 
     name rfoot
     direction -0.0660461 -0.18146 0.981178   
     length 1.85272  
     axis -90 -7.62852e-016 -20   XYZ
    dof rx rz
    limits (-45.0 90.0)
           (-20.0 70.0)
  end
  begin
     id 10 
     name rtoes
     direction -1.53586e-011 -4.21988e-011 1   
     length 0.93746   
     axis -90 -7.62852e-016 -20   XYZ
    dof rx
    limits (-90.0 20.0)
  end
  begin
     id 11 
     name lowerback
     direction -0.0107982 0.991059 0.13299   
     length 1.98691   
     axis 0 0 0   XYZ
    dof rx ry rz
    limits (-20.0 45.0)
           (-30.0 30.0)
           (-30.0 30.0)
  end
  begin
     id 12 
     name upperback
     direction 0.0076296 0.999916 0.0104576   
     length 1.99501   
     axis 0 0 0   XYZ
    dof rx ry rz
    limits (-20.0 45.0)
           (-30.0 30.0)
           (-30.0 30.0)
  end
  begin
     id 13 
     name thorax
     direction 0.01176 0.998615 -0.0512909   
     length 2.03144   
     axis 0 0 0   XYZ
    dof rx ry rz
    limits (-20.0 45.0)
           (-30.0 30.0)
           (-30.0 30.0)
  end
  begin
     id 14 
     name lowerneck
     direction -0.0171909 0.999644 0.0204011   
     length 1.71818   
     axis 0 0 0   XYZ
    dof rx ry rz
    limits (-20.0 45.0)
           (-30.0 30.0)
           (-30.0 30.0)
  end
  begin
     id 15 
     name upperneck
     direction 0.0250902 0.997482 -0.0663316   
     length 1.66199   
     axis 0 0 0   XYZ
    dof rx ry rz
    limits (-20.0 45.0)
           (-30.0 30.0)
           (-30.0 30.0)
  end
  begin
     id 16
     name head
     direction 0.00881535 0.99956 -0.0283365  
     length 1.81545  
     axis 0 0 0   XYZ
    dof rx ry rz
    limits (-20.0 45.0)
           (-30.0 30.0)
           (-30.0 30.0)
  end
  begin
     id 17 
     name lclavicle
     direction 0.840411 0.486876 -0.238035  
     length 3.30409  
     axis 0 0 0   XYZ
    dof ry rz
    limits (-20.0 10.0)
           (0.0 20.0)
  end
  begin
     id 18 
     name lhumerus
     direction 1 -4.48977e-011 -5.16239e-027   
     length 4.62672   
     axis 180 -30 -90   XYZ
    dof rx ry rz
    limits (-60.0 90.0)
           (-90.0 90.0)
           (-90.0 90.0)
  end
  begin
     id 19
     name lradius
     direction 1 -4.48977e-011 -8.71171e-027   
     length 3.11018   
     axis 180 -30 -90   XYZ
    dof rx
    limits (-10.0 170.0)
  end
  begin
     id 20
     name lwrist
     direction 1 -4.48912e-011 -1.03764e-026   
     length 1.55509   
     axis 9.09556e-015 90 90   XYZ
    dof ry
    limits (-180.0 0.0)
 end
  begin
     id 21 
     name lhand
     direction 1 -4.49072e-011 -2.07528e-026   
     length 0.743834   
     axis 1.3242e-014 90 90   XYZ
    dof rx rz
    limits (-90.0 90.0)
           (-45.0 45.0)
  end
  begin
     id 22 
     name lfingers
     direction 1 -4.48909e-011 -4.15056e-026   
     length 0.599698   
     axis 2.64841e-014 90 90   XYZ
    dof rx
    limits (0.0 90.0)
  end
  begin
     id 23
     name lthumb
     direction 0.707107 -6.35013e-011 0.707107   
     length 0.86105   
     axis -90 45 2.85299e-015   XYZ
    dof rx rz
    limits (-45.0 45.0)
           (-45.0 45.0)
  end
  begin
     id 24 
     name rclavicle
     direction -0.835208 0.500237 -0.228452   
     length 3.2716  
     axis 0 0 0   XYZ 
    dof ry rz
    limits (-10.0 20.0)
           (-20.0 0.0)
  end
  begin
     id 25 
     name rhumerus
     direction -1 -4.48978e-011 -5.1953e-028  
     length 4.55919   
     axis 180 30 90   XYZ
    dof rx ry rz
    limits (-90.0 60.0)
           (-90.0 90.0)
           (-90.0 90.0)
  end
  begin
     id 26 
     name rradius
     direction -1 -4.48961e-011 -5.99546e-027   
     length 3.22748   
     axis 180 30 90   XYZ
    dof rx
    limits (-10.0 170.0)
  end
  begin
     id 27 
     name rwrist
     direction -1 -4.48986e-011 -1.03764e-026   
     length 1.61374   
     axis 9.09556e-015 -90 -90   XYZ
    dof ry
    limits (-180.0 0.0)
  end
  begin
     id 28
     name rhand
     direction -1 -4.4899e-011 -2.07528e-026   
     length 0.700882   
     axis 1.3242e-014 -90 -90   XYZ
    dof rx rz
    limits (-90.0 90.0)
           (-45.0 45.0)
  end
  begin
     id 29
     name rfingers
     direction -1 -4.48991e-011 -4.15056e-026   
     length 0.565069   
     axis 2.64841e-014 -90 -90   XYZ
    dof rx
    limits (0.0 90.0)
  end
  begin
     id 30
     name rthumb
     direction -0.707107 -6.34804e-011 0.707107   
     length 0.811329   
     axis -90 -45 -2.85299e-015   XYZ
    dof rx rz
    limits (-45.0 45.0)
           (-45.0 45.0)
  end
:hierarchy
  begin
    root lhipjoint rhipjoint lowerback
    lhipjoint lfemur
    lfemur ltibia
    ltibia lfoot
    lfoot ltoes
    rhipjoint rfemur
    rfemur rtibia
    rtibia rfoot
    rfoot rtoes
    lowerback upperback
    upperback thorax
    thorax lowerneck lclavicle rclavicle
    lowerneck upperneck
    upperneck head
    lclavicle lhumerus
    lhumerus lradius
    lradius lwrist
    lwrist lhand lthumb
    lhand lfingers
    rclavicle rhumerus
    rhumerus rradius
    rradius rwrist
    rwrist rhand rthumb
    rhand rfingers
  end

#!OML:ASF F:\VICON\USERDATA\INSTALL\SteveWalk\SteveWalk.ASF
:FULLY-SPECIFIED
:DEGREES
16
root -0.629552 16.3387 -41.1678 19.9522 -4.51057 -1.52321
lowerback -17.2933 1.87422 1.3415
upperback -5.1887 2.16135 1.28064
thorax 4.1304 1.06952 1.03475
lowerneck -1.02784 -0.853919 0.519393
upperneck 6.27542 -0.979744 -3.10102
head 2.12474 -0.552639 -1.08891
rclavicle -6.1002e-015 -9.54166e-015
rhumerus -26.3057 5.28716 -83.6009
rradius 55.5637
rwrist -18.9813
rhand -18.8856 -39.0691
rfingers 7.12502
rthumb 7.41558 -68.9191
lclavicle -6.1002e-015 -9.54166e-015
lhumerus -51.5246 8.78779 83.5944
lradius 17.6199
lwrist -20.3414
lhand -8.22772 -17.7653
lfingers 7.12502
lthumb 17.6897 11.45
rfemur -12.4357 -10.8657 24.385
rtibia 23.8882
rfoot -27.0384 18.0819
rtoes 2.4317
lfemur -49.986 4.46655 -20.5489
ltibia 17.93
lfoot -7.98194 7.39948
ltoes -1.39867
17
root -0.615771 16.3145 -40.9665 20.007 -5.0097 -2.02461
lowerback -17.3315 2.16137 1.90685
upperback -5.0897 2.44209 1.21269
thorax 4.27957 1.20824 0.705682
lowerneck -1.4024 -0.802899 0.501367
upperneck 6.36105 -0.914879 -2.97566
head 2.22175 -0.521093 -1.04898
rclavicle -6.12381e-014 -2.22639e-014
rhumerus -25.7156 5.00826 -83.3798
rradius 55.7586
rwrist -17.0593
rhand -16.3753 -37.5156
rfingers 7.12502
rthumb 9.83804 -67.2658
lclavicle -6.12381e-014 -2.22639e-014
lhumerus -51.6844 9.29255 82.9087
lradius 17.2543
lwrist -20.9523
lhand -8.59704 -16.5567
lfingers 7.12502
lthumb 17.3343 12.6903
rfemur -11.1994 -10.484 24.4671
rtibia 22.9804
rfoot -26.8915 18.2864
rtoes 1.06093
lfemur -49.895 5.4374 -20.5094
ltibia 15.3499
lfoot -7.85201 6.72159
ltoes -2.92676
18
root -0.60353 16.2849 -40.7642 20.129 -5.55969 -2.30745
lowerback -16.904 2.30622 1.82231
upperback -5.01196 2.65283 1.33075
thorax 4.12664 1.31293 0.905811
lowerneck -3.11877 -0.709486 0.360078
upperneck 7.00751 -0.76126 -2.97091
head 2.75573 -0.46573 -1.04228
rclavicle -1.86361e-015 -7.95139e-016
rhumerus -25.0035 6.11826 -83.4679
rradius 56.5697
rwrist -19.318
rhand -20.5538 -41.0532
rfingers 7.12502
rthumb 5.80518 -70.9536
lclavicle -1.86361e-015 -7.95139e-016
lhumerus -51.6027 10.7725 81.7828
lradius 16.686
lwrist -22.5933
lhand -8.85591 -15.8803
lfingers 7.12502
lthumb 17.0851 13.3885
rfemur -10.1227 -9.84133 24.3192
rtibia 22.2076
rfoot -26.5913 18.3118
rtoes 0.642994
lfemur -49.9297 6.79102 -21.1547
ltibia 12.8899
lfoot -7.7384 5.22961
ltoes -4.84831
19
root -0.588961 16.2464 -40.5529 20.2508 -5.91384 -2.245
lowerback -17.0199 2.42747 1.64978
upperback -4.66436 2.84196 1.15316
thorax 4.55859 1.40608 0.869492
lowerneck -4.69907 -0.699367 0.51062
upperneck 7.20227 -0.747366 -2.96283
head 3.12053 -0.467294 -1.08318
rclavicle -1.41261e-014 2.78299e-015
rhumerus -24.0035 6.4137 -83.4467
rradius 57.0277
rwrist -19.729
rhand -21.4832 -41.3289
rfingers 7.12502
rthumb 4.90779 -71.2521
lclavicle -1.41261e-014 2.78299e-015
lhumerus -50.9284 12.2904 80.29
lradius 15.8931
lwrist -24.719
lhand -9.57823 -16.88
lfingers 7.12502
lthumb 16.3898 12.4475
rfemur -9.05052 -9.54491 23.8494
rtibia 21.4263
rfoot -26.4103 18.2374
rtoes -0.12947
lfemur -50.3655 8.45096 -22.8155
ltibia 10.9371
lfoot -7.59305 2.76514
ltoes -6.69947
20
root -0.570485 16.2247 -40.3385 20.2248 -6.27257 -1.99345
lowerback -17.0757 2.52705 1.34313
upperback -4.53463 3.03439 0.940871
thorax 4.72252 1.49906 0.864538
lowerneck -5.02907 -0.717454 0.557723
upperneck 6.94133 -0.784641 -2.90582
head 3.09332 -0.482839 -1.0746
rclavicle -4.9075e-015 -1.19271e-014
rhumerus -23.5932 6.33498 -83.2426
rradius 57.3383
rwrist -18.7363
rhand -19.7973 -40.891
rfingers 7.12502
rthumb 6.53547 -70.7702
lclavicle -4.9075e-015 -1.19271e-014
lhumerus -51.055 13.5661 78.8354
lradius 15.4881
lwrist -26.5715
lhand -8.79099 -16.6768
lfingers 7.12502
lthumb 17.1476 12.5865
rfemur -7.9329 -9.5152 23.1454
rtibia 20.7225
rfoot -26.278 18.3086
rtoes -2.33038
lfemur -50.1039 8.42923 -22.9365
ltibia 9.32675
lfoot -7.5349 2.34923
ltoes -7.15552
21
root -0.549128 16.2137 -40.1242 20.2193 -6.46717 -2.1182
lowerback -16.7483 2.62497 1.43309
upperback -4.92414 3.16121 0.929889
thorax 4.13968 1.56261 0.800401
lowerneck -4.45518 -0.743583 0.255651
upperneck 7.07781 -0.810626 -2.70651
head 3.03049 -0.493694 -0.953457
rclavicle 2.00027e-014 9.14409e-015
rhumerus -24.3567 6.57983 -82.9767
rradius 58.1521
rwrist -17.4518
rhand -17.1208 -41.5662
rfingers 7.12502
rthumb 9.11874 -71.3491
lclavicle 2.00027e-014 9.14409e-015
lhumerus -52.4191 14.6828 77.2575
lradius 15.4778
lwrist -27.9692
lhand -8.70395 -16.8269
lfingers 7.12502
lthumb 17.2314 12.4291
rfemur -6.85239 -9.33224 22.8901
rtibia 20.0878
rfoot -26.0402 18.1147
rtoes -5.80788
lfemur -49.7386 8.40949 -22.625
ltibia 8.13421
lfoot -6.99953 1.14277
ltoes -12.1028
22
root -0.537316 16.195 -39.9119 19.9436 -6.53624 -1.96964
lowerback -17.0144 2.65816 1.3681
upperback -4.69925 3.2184 0.710615
thorax 4.52947 1.58959 0.637627
lowerneck -3.84589 -0.786755 0.285004
upperneck 6.61385 -0.889991 -2.61578
head 2.75676 -0.521927 -0.921321
rclavicle 2.14812e-014 2.80286e-014
rhumerus -24.3197 6.34703 -82.8724
rradius 58.9001
rwrist -15.621
rhand -13.4098 -41.9483
rfingers 7.12502
rthumb 12.6981 -71.5422
lclavicle 2.14812e-014 2.80286e-014
lhumerus -52.8592 16.1776 75.2772
lradius 15.1763
lwrist -29.7486
lhand -9.20952 -17.6439
lfingers 7.12502
lthumb 16.7447 11.654
rfemur -5.41353 -8.92803 22.3739
rtibia 19.4052
rfoot -25.4667 17.9657
rtoes -7.31023
lfemur -49.5342 8.15638 -22.5167
ltibia 7.95582
lfoot -7.36594 0.504556
ltoes -13.0244
23
root -0.523855 16.1619 -39.6971 19.7626 -6.4599 -1.84011
lowerback -16.8037 2.63482 1.12242
upperback -4.76849 3.24079 0.603779
thorax 4.337 1.60035 0.655465
lowerneck -3.5668 -0.803194 0.188138
upperneck 6.45766 -0.919776 -2.47793
head 2.65194 -0.531823 -0.856852
rclavicle 3.25386e-014 1.13307e-014
rhumerus -24.7206 6.96857 -83.0584
rradius 58.2446
rwrist -18.1799
rhand -16.6319 -32.2421
rfingers 7.12502
rthumb 9.59056 -62.0038
lclavicle 3.25386e-014 1.13307e-014
lhumerus -53.6872 17.2021 73.7675
lradius 15.2503
lwrist -30.652
lhand -9.01822 -17.1384
lfingers 7.12502
lthumb 16.9289 12.1438
rfemur -4.12082 -8.26011 21.9257
rtibia 18.909
rfoot -24.5945 17.8616
rtoes -7.56256
lfemur -49.6188 7.7438 -22.3769
ltibia 8.47395
lfoot -8.07408 0.215576
ltoes -11.2352
24
root -0.50438 16.1285 -39.4526 19.1542 -6.9328 -1.55838
lowerback -16.2337 2.75408 0.791299
upperback -4.69511 3.47395 0.380258
thorax 4.10607 1.71568 0.627023
lowerneck -3.89496 -0.74078 0.0635911
upperneck 6.63065 -0.847794 -2.11747
head 2.77316 -0.49036 -0.721225
rclavicle 7.83336e-015 -7.15625e-015
rhumerus -24.9655 6.97899 -83.1006
rradius 58.271
rwrist -17.9583
rhand -16.7634 -32.6951
rfingers 7.12502
rthumb 9.46366 -62.4626
lclavicle 7.83336e-015 -7.15625e-015
lhumerus -54.4739 18.0439 72.3746
lradius 15.5213
lwrist -30.8461
lhand -8.91815 -17.7912
lfingers 7.12502
lthumb 17.0252 11.4827
rfemur -2.56315 -7.56576 20.9962
rtibia 18.9214
rfoot -23.927 18.2057
rtoes -9.23212
lfemur -48.8257 7.77715 -22.546
ltibia 8.82388
lfoot -8.40399 0.203851
ltoes -11.6021
25
root -0.487961 16.0927 -39.2158 18.9166 -6.91824 -1.38588
lowerback -16.2368 2.73426 0.543487
upperback -4.57275 3.49497 0.24227
thorax 4.23154 1.72471 0.629587
lowerneck -4.20283 -0.790911 0.0329332
upperneck 6.69521 -0.9214 -1.95577
head 2.85228 -0.524136 -0.669543
rclavicle 4.07633e-014 1.98785e-014
rhumerus -25.2285 6.93121 -83.074
rradius 58.4615
rwrist -17.3629
rhand -16.6131 -33.1749
rfingers 7.12502
rthumb 9.60869 -62.9358
lclavicle 4.07633e-014 1.98785e-014
lhumerus -55.1933 20.0636 69.8145
lradius 15.3294
lwrist -32.2699
lhand -8.24577 -18.1164
lfingers 7.12502
lthumb 17.6723 11.1004
rfemur -1.66487 -7.02457 20.4837
rtibia 19.3763
rfoot -23.3394 18.0636
rtoes -12.4916
lfemur -48.4213 7.30336 -22.5609
ltibia 9.36139
lfoot -8.3071 0.2297
ltoes -7.87579
26
root -0.478062 16.0523 -38.9831 18.8253 -6.86044 -1.05059
lowerback -16.3483 2.69298 -0.0373703
upperback -4.60443 3.54311 0.0744334
thorax 4.23346 1.74623 0.793459
lowerneck -4.03119 -0.944581 0.158765
upperneck 6.55053 -1.13655 -1.98953
head 2.76797 -0.627411 -0.707258
rclavicle 9.63267e-014 3.18055e-014
rhumerus -25.9215 6.54646 -82.9613
rradius 58.8033
rwrist -16.4233
rhand -16.3868 -34.5952
rfingers 7.12502
rthumb 9.82702 -64.3459
lclavicle 9.63267e-014 3.18055e-014
lhumerus -56.0805 22.0076 66.9532
lradius 14.803
lwrist -33.9731
lhand -8.65123 -18.7532
lfingers 7.12502
lthumb 17.2821 10.4983
rfemur -1.07805 -6.09578 19.9313
rtibia 20.0997
rfoot -22.7003 17.5546
rtoes -12.8859
lfemur -48.3097 6.76692 -22.7051
ltibia 10.4114
lfoot -8.22057 0.453312
ltoes -7.65947
27
root -0.466627 16.0086 -38.7431 18.8004 -6.86128 -1.0125
lowerback -16.4644 2.74869 -0.307152
upperback -4.6597 3.66587 -0.0332579
thorax 4.22593 1.80586 0.859944
lowerneck -4.22661 -1.0526 0.0809759
upperneck 6.80748 -1.28913 -1.73705
head 2.89121 -0.69868 -0.622233
rclavicle -1.87044e-014 4.07509e-015
rhumerus -26.6466 6.36641 -82.9211
rradius 58.8458
rwrist -16.1054
rhand -16.0078 -35.3888
rfingers 7.12502
rthumb 10.1926 -65.1219
lclavicle -1.87044e-014 4.07509e-015
lhumerus -56.9753 24.0607 63.868
lradius 14.0848
lwrist -35.8464
lhand -9.28131 -18.971
lfingers 7.12502
lthumb 16.6756 10.3327
rfemur -0.608597 -5.28621 19.6319
rtibia 20.9821
rfoot -21.8619 17.4874
rtoes -11.6451
lfemur -48.37 6.32871 -22.5662
ltibia 12.0144
lfoot -8.49012 1.1375
ltoes -12.5633
